<svg xmlns="http://www.w3.org/2000/svg" viewBox="0 0 180 180" width="180" height="180" role="img" aria-label="Safe Companion">
  <defs>
    <linearGradient id="aiGrad" x1="0" y1="0" x2="1" y2="1">
      <stop offset="0%" stop-color="#3b82f6"/>
      <stop offset="55%" stop-color="#8b5cf6"/>
      <stop offset="100%" stop-color="#ec4899"/>
    </linearGradient>
    <linearGradient id="aiGrad2" x1="0" y1="0" x2="1" y2="1">
      <stop offset="0%" stop-color="#10b981"/>
      <stop offset="100%" stop-color="#3b82f6"/>
    </linearGradient>
  </defs>
  <rect width="180" height="180" rx="40" fill="#0b1224"/>
  <g transform="translate(20,18) scale(2.7)">
    <path d="M26 0 L52 8 V28 C52 42 40 50 26 52 C12 50 0 42 0 28 V8 Z"
          fill="url(#aiGrad)"/>
    <path d="M26 38 C18 32 10 26 10 19 C10 14.5 13.5 11 18 11 C21 11 23.5 12.5 26 15.5 C28.5 12.5 31 11 34 11 C38.5 11 42 14.5 42 19 C42 26 34 32 26 38 Z"
          fill="url(#aiGrad2)"/>
    <path d="M19 23 L24 28 L34 18" stroke="#ffffff" stroke-width="2.8"
          fill="none" stroke-linecap="round" stroke-linejoin="round"/>
  </g>
</svg>
