<svg xmlns="http://www.w3.org/2000/svg" viewBox="0 0 1200 630" width="1200" height="630">
  <defs>
    <linearGradient id="ogBg" x1="0" y1="0" x2="1" y2="1">
      <stop offset="0%" stop-color="#070b14"/>
      <stop offset="50%" stop-color="#0f1a2f"/>
      <stop offset="100%" stop-color="#1a0b2e"/>
    </linearGradient>
    <linearGradient id="ogShield" x1="0" y1="0" x2="1" y2="1">
      <stop offset="0%" stop-color="#3b82f6"/>
      <stop offset="55%" stop-color="#8b5cf6"/>
      <stop offset="100%" stop-color="#ec4899"/>
    </linearGradient>
    <linearGradient id="ogHeart" x1="0" y1="0" x2="1" y2="1">
      <stop offset="0%" stop-color="#10b981"/>
      <stop offset="100%" stop-color="#3b82f6"/>
    </linearGradient>
  </defs>

  <rect width="1200" height="630" fill="url(#ogBg)"/>

  <!-- Decorative blurry circles -->
  <circle cx="100" cy="100" r="120" fill="#3b82f6" opacity="0.18"/>
  <circle cx="1100" cy="540" r="160" fill="#ec4899" opacity="0.14"/>

  <!-- Shield -->
  <g transform="translate(120,180) scale(4.5)">
    <path d="M26 0 L52 8 V28 C52 42 40 50 26 52 C12 50 0 42 0 28 V8 Z"
          fill="url(#ogShield)"/>
    <path d="M26 38 C18 32 10 26 10 19 C10 14.5 13.5 11 18 11 C21 11 23.5 12.5 26 15.5 C28.5 12.5 31 11 34 11 C38.5 11 42 14.5 42 19 C42 26 34 32 26 38 Z"
          fill="url(#ogHeart)"/>
    <path d="M19 23 L24 28 L34 18" stroke="#ffffff" stroke-width="2.8"
          fill="none" stroke-linecap="round" stroke-linejoin="round"/>
  </g>

  <!-- Wordmark -->
  <g font-family="Inter, ui-sans-serif, system-ui, -apple-system, Segoe UI, sans-serif">
    <text x="450" y="280" font-size="72" font-weight="800" fill="#ffffff">Safe Companion</text>
    <text x="450" y="345" font-size="42" font-weight="700" fill="url(#ogShield)">India · Verified</text>
    <text x="450" y="420" font-size="28" font-weight="500" fill="#9aa3b2">Genuine Male Companion Service</text>
    <text x="450" y="460" font-size="28" font-weight="500" fill="#9aa3b2">50+ Cities · No Hidden Charges</text>
    <text x="450" y="540" font-size="24" font-weight="600" fill="#10b981">💬 WhatsApp · ✈️ Telegram · 24/7</text>
  </g>
</svg>
